#N canvas 733 126 586 303 10;
#X declare -path ../dummies;
#X obj 27 16 inlet;
#X obj 212 24 sig~ 1;
#X msg 126 60 \; pd dsp 1;
#X msg 27 119 \; pd dsp 0;
#X obj 212 217 outlet;
#X obj 76 97 switch~ 1;
#X obj 212 131 == 1;
#X obj 272 24 sig~ 2;
#X obj 321 24 sig~ 3;
#X obj 212 67 connected~ 7, f 22;
#X obj 212 109 unpack f f f f f f f, f 35;
#X obj 212 173 sel 0;
#X obj 66 17 bng 15 250 50 0 empty empty empty 17 7 0 10 -262144 -1
-1;
#X obj 246 131 == 1;
#X obj 281 131 == 1;
#X obj 315 131 == 1;
#X obj 350 131 == 1;
#X obj 384 131 == 1;
#X obj 212 89 t l l;
#X obj 212 195 list, f 5;
#X obj 419 131 == 0;
#X obj 27 38 t b b b, f 17;
#X obj 378 23 declare -path ../dummies;
#X connect 0 0 21 0;
#X connect 1 0 9 0;
#X connect 1 0 9 2;
#X connect 1 0 9 3;
#X connect 1 0 9 5;
#X connect 6 0 11 0;
#X connect 7 0 9 2;
#X connect 7 0 9 1;
#X connect 7 0 9 4;
#X connect 7 0 9 5;
#X connect 8 0 9 3;
#X connect 8 0 9 4;
#X connect 8 0 9 5;
#X connect 9 0 18 0;
#X connect 10 0 6 0;
#X connect 10 1 13 0;
#X connect 10 2 14 0;
#X connect 10 3 15 0;
#X connect 10 4 16 0;
#X connect 10 5 17 0;
#X connect 10 6 20 0;
#X connect 11 0 19 0;
#X connect 12 0 21 0;
#X connect 13 0 11 0;
#X connect 14 0 11 0;
#X connect 15 0 11 0;
#X connect 16 0 11 0;
#X connect 17 0 11 0;
#X connect 18 0 10 0;
#X connect 18 1 19 1;
#X connect 19 0 4 0;
#X connect 20 0 11 0;
#X connect 21 0 3 0;
#X connect 21 1 5 0;
#X connect 21 2 2 0;
