#N canvas 372 230 602 483 10;
#X declare -path ./dummies;
#X obj 87 17 loadbang;
#X obj 152 17 declare -path ./dummies;
#X obj 56 17 bng 15 250 50 0 empty empty empty 17 7 0 10 -262144 -1
-1;
#X obj 154 147 connected~-test;
#X obj 154 169 print error connected~-test;
#X obj 188 104 pak-test;
#X obj 188 125 print error connected~-test;
#X obj 222 83 stdout;
#X msg 222 62 dummies-test running...;
#X msg 114 197 dummies-test ok;
#X obj 114 219 stdout;
#X obj 87 39 t b b b b b, f 23;
#X obj 87 165 t b b;
#X msg 87 247 \; pd quit;
#X connect 0 0 11 0;
#X connect 2 0 11 0;
#X connect 3 0 4 0;
#X connect 5 0 6 0;
#X connect 8 0 7 0;
#X connect 9 0 10 0;
#X connect 11 0 12 0;
#X connect 11 2 3 0;
#X connect 11 3 5 0;
#X connect 11 4 8 0;
#X connect 12 0 13 0;
#X connect 12 1 9 0;
