#N canvas 69 141 602 483 10;
#X declare -path ../dummies;
#X declare -path ../dummies;
#X obj 154 197 connected~-test;
#X obj 154 219 print error connected~-test;
#X obj 188 154 pak-test;
#X obj 188 175 print error connected~-test;
#X obj 222 133 stdout;
#X msg 222 112 dummies-test running...;
#X msg 114 247 dummies-test ok;
#X obj 114 269 stdout;
#X obj 87 89 t b b b b b, f 23;
#X obj 87 215 t b b;
#X obj 87 63 ../pd.build/tester.link;
#X connect 0 0 1 0;
#X connect 2 0 3 0;
#X connect 5 0 4 0;
#X connect 6 0 7 0;
#X connect 8 0 9 0;
#X connect 8 2 0 0;
#X connect 8 3 2 0;
#X connect 8 4 5 0;
#X connect 9 1 6 0;
#X connect 10 0 8 0;
