#N canvas 283 303 602 483 10;
#X obj 68 328 ==;
#X obj 122 328 ==;
#X obj 149 328 ==;
#X obj 68 390 sel 0;
#X obj 68 412 list;
#X obj 68 434 outlet;
#X msg 69 176 12 33;
#X msg 150 225 12 symbol 12 33;
#X obj 92 63 t b b, f 12;
#X obj 69 83 t b b, f 14;
#X obj 46 105 t b b, f 16;
#X obj 23 125 t b b, f 18;
#X msg 46 197 cat;
#X msg 139 199 12 cat 12 33;
#X msg 23 230 99 bird 12 3;
#X msg 128 179 99 bird 12 3;
#X obj 23 36 t b b b b, f 12;
#X obj 23 14 inlet;
#X obj 62 15 bng 15 250 50 0 empty empty empty 17 7 0 10 -262144 -1
-1;
#N canvas 654 422 143 174 s.== 0;
#X obj 14 16 inlet;
#X obj 84 16 inlet;
#X obj 14 38 t b s b, f 9;
#X obj 65 88 f 0;
#X obj 14 120 f;
#X obj 39 88 f 1;
#X obj 14 142 outlet;
#X obj 39 66 sel s, f 8;
#X connect 0 0 2 0;
#X connect 1 0 7 1;
#X connect 2 0 4 0;
#X connect 2 1 7 0;
#X connect 2 2 3 0;
#X connect 3 0 4 1;
#X connect 4 0 6 0;
#X connect 5 0 4 1;
#X connect 7 0 5 0;
#X restore 93 351 pd s.==;
#X obj 23 276 t l l, f 11;
#X obj 128 296 unpack f s f f;
#X msg 161 251 12 symbol 0 0;
#X obj 23 296 unpack f s f 0;
#X obj 23 254 pak 12 s f 0;
#X connect 0 0 3 0;
#X connect 1 0 3 0;
#X connect 2 0 3 0;
#X connect 3 0 4 0;
#X connect 4 0 5 0;
#X connect 6 0 24 2;
#X connect 7 0 21 0;
#X connect 8 0 24 3;
#X connect 8 1 22 0;
#X connect 9 0 6 0;
#X connect 9 1 7 0;
#X connect 10 0 12 0;
#X connect 10 1 13 0;
#X connect 11 0 14 0;
#X connect 11 1 15 0;
#X connect 12 0 24 1;
#X connect 13 0 21 0;
#X connect 14 0 24 0;
#X connect 15 0 21 0;
#X connect 16 0 11 0;
#X connect 16 1 10 0;
#X connect 16 2 9 0;
#X connect 16 3 8 0;
#X connect 17 0 16 0;
#X connect 18 0 16 0;
#X connect 19 0 3 0;
#X connect 20 0 23 0;
#X connect 20 1 4 1;
#X connect 21 0 0 1;
#X connect 21 1 19 1;
#X connect 21 2 1 1;
#X connect 21 3 2 1;
#X connect 22 0 21 0;
#X connect 23 0 0 0;
#X connect 23 1 19 0;
#X connect 23 2 1 0;
#X connect 23 3 2 0;
#X connect 24 0 20 0;
