#N canvas 400 440 264 190 10;
#X obj 20 120 nbx 5 14 -1e+37 1e+37 0 0 empty empty empty 0 -8 0 10
-262144 -1 -1 0.971718 256;
#N canvas 256 396 314 149 snapter 0;
#X obj 57 95 snapshot~;
#X obj 98 6 bang~;
#X obj 98 28 f 0;
#X obj 129 28 + 1;
#X obj 98 50 sel 5;
#X obj 98 72 f 0;
#X obj 57 16 inlet~;
#X obj 57 117 outlet;
#X connect 0 0 7 0;
#X connect 1 0 2 0;
#X connect 2 0 3 0;
#X connect 2 0 4 0;
#X connect 3 0 2 1;
#X connect 4 0 5 0;
#X connect 4 0 0 0;
#X connect 5 0 2 1;
#X connect 6 0 0 0;
#X restore 20 98 pd snapter;
#X obj 20 50 paverage~ 10;
#X obj 120 120 nbx 5 14 -1e+37 1e+37 0 0 empty empty empty 0 -8 0 10
-262144 -1 -1 1 256;
#N canvas 256 396 314 149 snapter 0;
#X obj 57 95 snapshot~;
#X obj 98 6 bang~;
#X obj 98 28 f 0;
#X obj 129 28 + 1;
#X obj 98 50 sel 5;
#X obj 98 72 f 0;
#X obj 57 16 inlet~;
#X obj 57 117 outlet;
#X connect 0 0 7 0;
#X connect 1 0 2 0;
#X connect 2 0 3 0;
#X connect 2 0 4 0;
#X connect 3 0 2 1;
#X connect 4 0 5 0;
#X connect 4 0 0 0;
#X connect 5 0 2 1;
#X connect 6 0 0 0;
#X restore 120 98 pd snapter;
#X obj 120 50 meanblock~ 10;
#X obj 120 26 sig~ 1e-06;
#X obj 120 73 *~ 1e+06;
#X obj 20 73 *~ 1e+06;
#X obj 20 26 sig~ 1e-06;
#X connect 1 0 0 0;
#X connect 2 0 8 0;
#X connect 4 0 3 0;
#X connect 5 0 7 0;
#X connect 6 0 5 0;
#X connect 7 0 4 0;
#X connect 8 0 1 0;
#X connect 9 0 2 0;
