#N canvas 689 165 491 272 10;
#X text 11 244 by Pierre Guillot - 2016;
#X obj 236 145 connected~ 4;
#X obj 189 72 sig~ 1;
#X obj 120 145 connected~ 2;
#X obj 120 167 list prepend set;
#X obj 120 189 list trim;
#X msg 120 211 0 1;
#X obj 235 167 list prepend set;
#X obj 235 189 list trim;
#X msg 235 211 1 0 1 0;
#X msg 376 129 \; pd dsp 1;
#X msg 376 169 \; pd dsp 0;
#X obj 10 145 connected~ 2;
#X obj 10 167 list prepend set;
#X obj 10 189 list trim;
#X msg 10 211 1 0;
#X text 14 9 Outputs the states of the inputs connections;
#X connect 1 0 7 0;
#X connect 2 0 1 0;
#X connect 2 0 3 1;
#X connect 2 0 1 2;
#X connect 2 0 12 0;
#X connect 3 0 4 0;
#X connect 4 0 5 0;
#X connect 5 0 6 0;
#X connect 7 0 8 0;
#X connect 8 0 9 0;
#X connect 12 0 13 0;
#X connect 13 0 14 0;
#X connect 14 0 15 0;
