#N canvas 689 165 439 342 10;
#X text 18 299 by Pierre Guillot - 2016;
#X obj 166 165 crash;
#X obj 166 142 bng 15 250 50 0 empty empty empty 17 7 0 10 -262144
-1 -1;
#X text 30 17 Don't touch this ...........................................
......................................................................................................................................................................................................................................................................................................................................................................................................................................................................................................................
;
#X text 33 208 Nooooooooooo !;
#X connect 2 0 1 0;
