#N canvas 471 363 387 327 10;
#X obj 101 130 print~;
#X obj 102 108 kop~ 12;
#X obj 157 125 print~;
#X obj 157 103 kop~ 13;
#X obj 105 63 kgen~ 10;
#X obj 165 38 kgen~ 11;
#X obj 207 125 print~;
#X obj 207 103 kop~ 14;
#X connect 1 0 0 0;
#X connect 3 0 2 0;
#X connect 4 0 7 0;
#X connect 4 0 1 0;
#X connect 4 0 1 1;
#X connect 5 0 3 0;
#X connect 5 0 3 1;
#X connect 5 0 7 1;
#X connect 7 0 6 0;
