#N canvas 471 204 387 327 10;
#X obj 207 125 print~;
#X obj 157 125 print~;
#X obj 106 125 print~;
#X obj 105 63 kgen~ 0;
#X obj 165 63 kgen~ 1;
#X obj 107 103 kop~ 2;
#X obj 157 103 kop~ 3;
#X obj 207 103 kop~ 4;
#X connect 3 0 5 0;
#X connect 3 0 5 1;
#X connect 3 0 7 0;
#X connect 4 0 6 0;
#X connect 4 0 6 1;
#X connect 4 0 7 1;
#X connect 5 0 2 0;
#X connect 6 0 1 0;
#X connect 7 0 0 0;
