#N canvas 471 363 387 327 10;
#X obj 105 33 kgen~ 2;
#X obj 155 33 kgen~ 3;
#X obj 206 33 kgen~ 4;
#X obj 266 33 kgen~ 5;
#X obj 105 85 kop~ 10;
#X obj 185 85 kop~ 11;
#X obj 105 125 kop~ 12;
#X connect 0 0 4 0;
#X connect 0 0 5 0;
#X connect 1 0 4 0;
#X connect 1 0 5 0;
#X connect 2 0 4 0;
#X connect 2 0 5 0;
#X connect 3 0 4 1;
#X connect 3 0 5 1;
#X connect 4 0 6 0;
#X connect 5 0 6 1;
