#N canvas 643 323 372 212 10;
#X obj 127 5 tgl 15 0 empty empty empty 17 7 0 10 -262144 -1 -1 0 1
;
#X obj 127 26 switch~ 4096 64;
#X floatatom 234 155 0 0 0 0 - - -;
#X obj 234 94 cputime;
#X obj 234 14 loadbang;
#X obj 234 52 metro 1000;
#X msg 234 33 1;
#X obj 234 73 t b b;
#X obj 234 134 * 0.1;
#X obj 234 114 int;
#X obj 31 44 loadbang;
#X msg 111 47 \; pd dsp \$1;
#X obj 31 91 meanblock~ 100;
#X msg 31 66 length 100;
#X connect 0 0 1 0;
#X connect 0 0 11 0;
#X connect 3 0 9 0;
#X connect 4 0 6 0;
#X connect 5 0 7 0;
#X connect 6 0 5 0;
#X connect 7 0 3 0;
#X connect 7 1 3 1;
#X connect 8 0 2 0;
#X connect 9 0 8 0;
#X connect 10 0 13 0;
#X connect 13 0 12 0;
