#N canvas 471 204 387 327 10;
#X obj 110 124 multisig~, f 22;
#X obj 105 63 sig~ 1;
#X obj 72 200 print~;
#X obj 72 155 bng 15 250 50 0 empty empty empty 17 7 0 10 -262144 -1
-1;
#X obj 143 200 print~;
#X obj 143 155 bng 15 250 50 0 empty empty empty 17 7 0 10 -262144
-1 -1;
#X obj 156 63 sig~ 2;
#X obj 205 63 sig~ 3;
#X obj 256 63 sig~ 4;
#X obj 192 200 print~;
#X obj 192 155 bng 15 250 50 0 empty empty empty 17 7 0 10 -262144
-1 -1;
#X obj 263 200 print~;
#X obj 263 155 bng 15 250 50 0 empty empty empty 17 7 0 10 -262144
-1 -1;
#X connect 0 0 2 0;
#X connect 0 1 4 0;
#X connect 0 2 9 0;
#X connect 0 3 11 0;
#X connect 1 0 0 0;
#X connect 3 0 2 0;
#X connect 5 0 4 0;
#X connect 6 0 0 1;
#X connect 7 0 0 2;
#X connect 8 0 0 3;
#X connect 10 0 9 0;
#X connect 12 0 11 0;
