#N canvas 587 286 407 393 10;
#X msg 186 129 \; pd dsp 1;
#X msg 186 169 \; pd dsp 0;
#X obj 22 288 tabosco~ \$0-zaza, f 17;
#X obj 22 322 dac~;
#X obj 22 155 soundfiler;
#X obj 22 18 bng 15 250 50 0 empty empty empty 17 7 0 10 -262144 -1
-1;
#X obj 22 41 openpanel;
#X obj 221 26 array define -k \$0-zaza;
#X msg 22 129 read -resize \$1 \$2;
#X obj 22 106 pack s s;
#X obj 22 63 t s b, f 8;
#X obj 67 84 symbol \$0-zaza;
#X obj 22 177 t b f, f 9;
#X obj 22 221 /, f 9;
#X obj 22 243 nbx 5 14 -1e+37 1e+37 0 0 empty empty empty 0 -8 0 10
-262144 -1 -1 0.0344141 256;
#X obj 22 199 f 44100;
#X msg 161 64 symbol /Users/Pierre/GitHub/Cours/2016-2017/CES/Sounds/Starman-DB.wav
;
#X msg 161 42 set symbol \$1;
#X connect 2 0 3 0;
#X connect 2 0 3 1;
#X connect 4 0 12 0;
#X connect 5 0 6 0;
#X connect 6 0 10 0;
#X connect 6 0 17 0;
#X connect 8 0 4 0;
#X connect 9 0 8 0;
#X connect 10 0 9 0;
#X connect 10 1 11 0;
#X connect 11 0 9 1;
#X connect 12 0 15 0;
#X connect 12 1 13 1;
#X connect 13 0 14 0;
#X connect 14 0 2 0;
#X connect 15 0 13 0;
#X connect 16 0 10 0;
#X connect 17 0 16 0;
